<?xml version="1.0" encoding="UTF-8"?>
<svg width="21px" height="21px" viewBox="0 0 21 21" version="1.1" xmlns="http://www.w3.org/2000/svg" xmlns:xlink="http://www.w3.org/1999/xlink">
    <title>Pear-4</title>
    <g id="Pear-4" stroke="none" stroke-width="1" fill="none" fill-rule="evenodd">
        <g id="Group" transform="translate(4.500000, 0.000000)">
            <polygon id="Path-3" fill="#F8FFD9" points="9 12 8 12 8 14 7 14 7 17 8 17 8 15 9 15"></polygon>
            <polygon id="Path-5" fill="#99E4C6" points="4 8 5 8 5 11 4 11 4 13 5 13 5 16 4 16 4 18 3 18 3 19 2 19 2 20 9 20 9 19 8 19 8 18 7 18 7 17 6 17 6 14 7 14 7 12 8 12 8 10 7 10 7 7 4 7"></polygon>
            <polygon id="Path-6" fill="#F8FFD9" points="3 13 3 15 4 15 4 13"></polygon>
            <polygon id="Path-10" fill="#E0DAC8" points="9 2 9 3 10 3 10 2 11 2 11 1 10 1 10 2"></polygon>
            <path d="M2,19 L2,20 L3,20 L3,19 L4,19 L4,20 L5,20 L5,19 L6,19 L6,20 L9,20 L9,21 L1,21 L1,20 L0,20 L0,19 L2,19 Z M10,19 L10,20 L9,20 L9,19 L10,19 Z M9,15 L9,19 L8,19 L8,18 L7,18 L7,17 L8,17 L8,15 L9,15 Z M3,18 L3,19 L2,19 L2,18 L3,18 Z M5,13 L5,16 L4,16 L4,18 L3,18 L3,15 L4,15 L4,13 L5,13 Z M7,14 L7,17 L6,17 L6,14 L7,14 Z M10,12 L10,15 L9,15 L9,12 L10,12 Z M3,13 L3,15 L2,15 L2,13 L3,13 Z M8,12 L8,14 L7,14 L7,12 L8,12 Z M3,11 L4,11 L4,13 L3,13 L3,11 Z M9,10 L9,12 L8,12 L8,10 L9,10 Z M5,8 L5,11 L4,11 L4,8 L5,8 Z M8,7 L8,10 L7,10 L7,7 L8,7 Z M4,7 L4,8 L3,8 L3,7 L4,7 Z M6,3 L6,4 L7,4 L7,5 L6,5 L6,6 L7,6 L7,7 L4,7 L4,6 L5,6 L5,3 L6,3 Z M13,0 L13,1 L12,1 L12,2 L11,2 L11,1 L10,1 L10,2 L9,2 L9,3 L10,3 L10,4 L7,4 L7,2 L8,2 L8,1 L10,1 L10,0 L13,0 Z M5,1 L5,3 L4,3 L4,2 L3,2 L3,1 L5,1 Z M11,2 L11,3 L10,3 L10,2 L11,2 Z" id="Combined-Shape" fill="#000000"></path>
        </g>
    </g>
</svg>