<?xml version="1.0" encoding="UTF-8"?>
<svg width="21px" height="21px" viewBox="0 0 21 21" version="1.1" xmlns="http://www.w3.org/2000/svg" xmlns:xlink="http://www.w3.org/1999/xlink">
    <title>Pear-3</title>
    <g id="Pear-3" stroke="none" stroke-width="1" fill="none" fill-rule="evenodd">
        <g id="Group" transform="translate(3.500000, 0.000000)">
            <polygon id="Path-3" fill="#F8FFD9" points="10 12 9 12 9 14 8 14 8 17 9 17 9 15 10 15"></polygon>
            <polygon id="Path-4" fill="#99E4C6" points="5 7 5 8 6 8 6 11 5 11 5 12 4 12 4 13 3 13 3 14 1 14 1 19 3 19 3 20 10 20 10 19 9 19 9 18 8 18 8 17 7 17 7 14 8 14 8 12 9 12 9 10 8 10 8 7"></polygon>
            <polygon id="Path-10" fill="#E0DAC8" points="10 2 10 3 11 3 11 2 12 2 12 1 11 1 11 2"></polygon>
            <path d="M3,19 L3,20 L4,20 L4,19 L5,19 L5,20 L6,20 L6,19 L7,19 L7,20 L10,20 L10,21 L2,21 L2,20 L1,20 L1,19 L3,19 Z M11,19 L11,20 L10,20 L10,19 L11,19 Z M10,15 L10,19 L9,19 L9,18 L8,18 L8,17 L9,17 L9,15 L10,15 Z M1,14 L1,19 L0,19 L0,14 L1,14 Z M5,17 L5,18 L4,18 L4,17 L5,17 Z M3,17 L3,18 L2,18 L2,17 L3,17 Z M8,14 L8,17 L7,17 L7,14 L8,14 Z M5,15 L5,16 L4,16 L4,15 L5,15 Z M3,15 L3,16 L2,16 L2,15 L3,15 Z M11,12 L11,15 L10,15 L10,12 L11,12 Z M9,12 L9,14 L8,14 L8,12 L9,12 Z M5,13 L5,14 L4,14 L4,13 L5,13 Z M3,13 L3,14 L1,14 L1,13 L3,13 Z M4,12 L4,13 L3,13 L3,12 L4,12 Z M10,10 L10,12 L9,12 L9,10 L10,10 Z M5,11 L5,12 L4,12 L4,11 L5,11 Z M6,8 L6,11 L5,11 L5,8 L6,8 Z M9,7 L9,10 L8,10 L8,7 L9,7 Z M5,7 L5,8 L4,8 L4,7 L5,7 Z M7,3 L7,4 L8,4 L8,5 L7,5 L7,6 L8,6 L8,7 L5,7 L5,6 L6,6 L6,3 L7,3 Z M14,0 L14,1 L13,1 L13,2 L12,2 L12,1 L11,1 L11,2 L10,2 L10,3 L11,3 L11,4 L8,4 L8,2 L9,2 L9,1 L11,1 L11,0 L14,0 Z M6,1 L6,3 L5,3 L5,2 L4,2 L4,1 L6,1 Z M12,2 L12,3 L11,3 L11,2 L12,2 Z" id="Combined-Shape" fill="#000000"></path>
        </g>
    </g>
</svg>