<?xml version="1.0" encoding="UTF-8"?>
<svg width="21px" height="21px" viewBox="0 0 21 21" version="1.1" xmlns="http://www.w3.org/2000/svg" xmlns:xlink="http://www.w3.org/1999/xlink">
    <title>Pear</title>
    
    <g id="Pear-1" visibility="visible" stroke="none" stroke-width="1" fill="none" fill-rule="evenodd">
        
        <animate id="a1" attributeName="visibility" values="visible;hidden;hidden;hidden;hidden" dur="50s" repeatCount="indefinite" />
        <animate id="a1" attributeName="visibility" values="visible;hidden;hidden;hidden;hidden" dur="50s" repeatCount="indefinite" />

        <g id="Group" transform="translate(3.500000, 0.000000)">
            <polygon id="Path" fill="#99E4C6" points="5 7 5 8 4 8 4 10 3 10 3 12 2 12 2 14 1 14 1 19 3 19 3 20 10 20 10 19 11 19 11 14 10 14 10 12 9 12 9 10 8 10 8 7"></polygon>
            <polygon id="Path-10" fill="#E0DAC8" points="10 2 10 3 11 3 11 2 12 2 12 1 11 1 11 2"></polygon>
            <path d="M3,19 L3,20 L4,20 L4,19 L5,19 L5,20 L6,20 L6,19 L7,19 L7,20 L10,20 L10,21 L2,21 L2,20 L1,20 L1,19 L3,19 Z M11,19 L11,20 L10,20 L10,19 L11,19 Z M12,14 L12,19 L11,19 L11,14 L12,14 Z M1,14 L1,19 L0,19 L0,14 L1,14 Z M5,17 L5,18 L4,18 L4,17 L5,17 Z M3,17 L3,18 L2,18 L2,17 L3,17 Z M3,15 L3,16 L2,16 L2,15 L3,15 Z M5,15 L5,16 L4,16 L4,15 L5,15 Z M2,12 L2,13 L3,13 L3,14 L1,14 L1,12 L2,12 Z M11,12 L11,14 L10,14 L10,12 L11,12 Z M5,13 L5,14 L4,14 L4,13 L5,13 Z M3,10 L3,12 L2,12 L2,10 L3,10 Z M10,10 L10,12 L9,12 L9,10 L10,10 Z M4,8 L4,10 L3,10 L3,8 L4,8 Z M9,7 L9,10 L8,10 L8,7 L9,7 Z M5,7 L5,8 L4,8 L4,7 L5,7 Z M7,3 L7,4 L8,4 L8,5 L7,5 L7,6 L8,6 L8,7 L5,7 L5,6 L6,6 L6,3 L7,3 Z M14,0 L14,1 L13,1 L13,2 L12,2 L12,1 L11,1 L11,2 L10,2 L10,3 L11,3 L11,4 L8,4 L8,2 L9,2 L9,1 L11,1 L11,0 L14,0 Z M6,1 L6,3 L5,3 L5,2 L4,2 L4,1 L6,1 Z M12,2 L12,3 L11,3 L11,2 L12,2 Z" id="Combined-Shape" fill="#000000"></path>
        </g>

    </g>

    <g id="Pear-2" visibility="hidden" stroke="none" stroke-width="1" fill="none" fill-rule="evenodd">
        
        <animate id="a2" attributeName="visibility" values="hidden;visible;hidden;hidden;hidden" dur="50s" repeatCount="indefinite" />

        <g id="Group" transform="translate(3.500000, 0.000000)">
            <polygon id="Path-2" fill="#99E4C6" points="10 20 3 20 3 19 1 19 1 14 3 14 3 13 2 13 2 12 3 12 3 10 4 10 4 8 5 8 5 7 8 7 8 10 9 10 9 12 8 12 8 14 7 14 7 17 8 17 8 18 9 18 9 19 10 19"></polygon>
            <polygon id="Path-3" fill="#F8FFD9" points="10 12 9 12 9 14 8 14 8 17 9 17 9 15 10 15"></polygon>
            <polygon id="Path-10" fill="#E0DAC8" points="10 2 10 3 11 3 11 2 12 2 12 1 11 1 11 2"></polygon>
            <path d="M3,19 L3,20 L4,20 L4,19 L5,19 L5,20 L6,20 L6,19 L7,19 L7,20 L10,20 L10,21 L2,21 L2,20 L1,20 L1,19 L3,19 Z M11,19 L11,20 L10,20 L10,19 L11,19 Z M10,15 L10,19 L9,19 L9,18 L8,18 L8,17 L9,17 L9,15 L10,15 Z M1,14 L1,19 L0,19 L0,14 L1,14 Z M5,17 L5,18 L4,18 L4,17 L5,17 Z M3,17 L3,18 L2,18 L2,17 L3,17 Z M8,14 L8,17 L7,17 L7,14 L8,14 Z M5,15 L5,16 L4,16 L4,15 L5,15 Z M3,15 L3,16 L2,16 L2,15 L3,15 Z M11,12 L11,15 L10,15 L10,12 L11,12 Z M9,12 L9,14 L8,14 L8,12 L9,12 Z M2,12 L2,13 L3,13 L3,14 L1,14 L1,12 L2,12 Z M5,13 L5,14 L4,14 L4,13 L5,13 Z M10,10 L10,12 L9,12 L9,10 L10,10 Z M3,10 L3,12 L2,12 L2,10 L3,10 Z M4,8 L4,10 L3,10 L3,8 L4,8 Z M9,7 L9,10 L8,10 L8,7 L9,7 Z M5,7 L5,8 L4,8 L4,7 L5,7 Z M7,3 L7,4 L8,4 L8,5 L7,5 L7,6 L8,6 L8,7 L5,7 L5,6 L6,6 L6,3 L7,3 Z M14,0 L14,1 L13,1 L13,2 L12,2 L12,1 L11,1 L11,2 L10,2 L10,3 L11,3 L11,4 L8,4 L8,2 L9,2 L9,1 L11,1 L11,0 L14,0 Z M6,1 L6,3 L5,3 L5,2 L4,2 L4,1 L6,1 Z M12,2 L12,3 L11,3 L11,2 L12,2 Z" id="Combined-Shape" fill="#000000"></path>
        </g>

    </g>

    <g id="Pear-3" stroke="none" stroke-width="1" fill="none" fill-rule="evenodd">
        
        <animate id="a3" attributeName="visibility" values="hidden;hidden;visible;hidden;hidden" dur="50s" repeatCount="indefinite" />

        <g id="Group" transform="translate(3.500000, 0.000000)">
            <polygon id="Path-3" fill="#F8FFD9" points="10 12 9 12 9 14 8 14 8 17 9 17 9 15 10 15"></polygon>
            <polygon id="Path-4" fill="#99E4C6" points="5 7 5 8 6 8 6 11 5 11 5 12 4 12 4 13 3 13 3 14 1 14 1 19 3 19 3 20 10 20 10 19 9 19 9 18 8 18 8 17 7 17 7 14 8 14 8 12 9 12 9 10 8 10 8 7"></polygon>
            <polygon id="Path-10" fill="#E0DAC8" points="10 2 10 3 11 3 11 2 12 2 12 1 11 1 11 2"></polygon>
            <path d="M3,19 L3,20 L4,20 L4,19 L5,19 L5,20 L6,20 L6,19 L7,19 L7,20 L10,20 L10,21 L2,21 L2,20 L1,20 L1,19 L3,19 Z M11,19 L11,20 L10,20 L10,19 L11,19 Z M10,15 L10,19 L9,19 L9,18 L8,18 L8,17 L9,17 L9,15 L10,15 Z M1,14 L1,19 L0,19 L0,14 L1,14 Z M5,17 L5,18 L4,18 L4,17 L5,17 Z M3,17 L3,18 L2,18 L2,17 L3,17 Z M8,14 L8,17 L7,17 L7,14 L8,14 Z M5,15 L5,16 L4,16 L4,15 L5,15 Z M3,15 L3,16 L2,16 L2,15 L3,15 Z M11,12 L11,15 L10,15 L10,12 L11,12 Z M9,12 L9,14 L8,14 L8,12 L9,12 Z M5,13 L5,14 L4,14 L4,13 L5,13 Z M3,13 L3,14 L1,14 L1,13 L3,13 Z M4,12 L4,13 L3,13 L3,12 L4,12 Z M10,10 L10,12 L9,12 L9,10 L10,10 Z M5,11 L5,12 L4,12 L4,11 L5,11 Z M6,8 L6,11 L5,11 L5,8 L6,8 Z M9,7 L9,10 L8,10 L8,7 L9,7 Z M5,7 L5,8 L4,8 L4,7 L5,7 Z M7,3 L7,4 L8,4 L8,5 L7,5 L7,6 L8,6 L8,7 L5,7 L5,6 L6,6 L6,3 L7,3 Z M14,0 L14,1 L13,1 L13,2 L12,2 L12,1 L11,1 L11,2 L10,2 L10,3 L11,3 L11,4 L8,4 L8,2 L9,2 L9,1 L11,1 L11,0 L14,0 Z M6,1 L6,3 L5,3 L5,2 L4,2 L4,1 L6,1 Z M12,2 L12,3 L11,3 L11,2 L12,2 Z" id="Combined-Shape" fill="#000000"></path>
        </g>

    </g>

    <g id="Pear-4" stroke="none" stroke-width="1" fill="none" fill-rule="evenodd">
        
        <animate id="a4" attributeName="visibility" values="hidden;hidden;hidden;visible;hidden" dur="50s" repeatCount="indefinite" />

        <g id="Group" transform="translate(4.500000, 0.000000)">
            <polygon id="Path-3" fill="#F8FFD9" points="9 12 8 12 8 14 7 14 7 17 8 17 8 15 9 15"></polygon>
            <polygon id="Path-5" fill="#99E4C6" points="4 8 5 8 5 11 4 11 4 13 5 13 5 16 4 16 4 18 3 18 3 19 2 19 2 20 9 20 9 19 8 19 8 18 7 18 7 17 6 17 6 14 7 14 7 12 8 12 8 10 7 10 7 7 4 7"></polygon>
            <polygon id="Path-6" fill="#F8FFD9" points="3 13 3 15 4 15 4 13"></polygon>
            <polygon id="Path-10" fill="#E0DAC8" points="9 2 9 3 10 3 10 2 11 2 11 1 10 1 10 2"></polygon>
            <path d="M2,19 L2,20 L3,20 L3,19 L4,19 L4,20 L5,20 L5,19 L6,19 L6,20 L9,20 L9,21 L1,21 L1,20 L0,20 L0,19 L2,19 Z M10,19 L10,20 L9,20 L9,19 L10,19 Z M9,15 L9,19 L8,19 L8,18 L7,18 L7,17 L8,17 L8,15 L9,15 Z M3,18 L3,19 L2,19 L2,18 L3,18 Z M5,13 L5,16 L4,16 L4,18 L3,18 L3,15 L4,15 L4,13 L5,13 Z M7,14 L7,17 L6,17 L6,14 L7,14 Z M10,12 L10,15 L9,15 L9,12 L10,12 Z M3,13 L3,15 L2,15 L2,13 L3,13 Z M8,12 L8,14 L7,14 L7,12 L8,12 Z M3,11 L4,11 L4,13 L3,13 L3,11 Z M9,10 L9,12 L8,12 L8,10 L9,10 Z M5,8 L5,11 L4,11 L4,8 L5,8 Z M8,7 L8,10 L7,10 L7,7 L8,7 Z M4,7 L4,8 L3,8 L3,7 L4,7 Z M6,3 L6,4 L7,4 L7,5 L6,5 L6,6 L7,6 L7,7 L4,7 L4,6 L5,6 L5,3 L6,3 Z M13,0 L13,1 L12,1 L12,2 L11,2 L11,1 L10,1 L10,2 L9,2 L9,3 L10,3 L10,4 L7,4 L7,2 L8,2 L8,1 L10,1 L10,0 L13,0 Z M5,1 L5,3 L4,3 L4,2 L3,2 L3,1 L5,1 Z M11,2 L11,3 L10,3 L10,2 L11,2 Z" id="Combined-Shape" fill="#000000"></path>
        </g>

    </g>

    <g id="Pear-5" stroke="none" stroke-width="1" fill="none" fill-rule="evenodd">
        
        <animate id="a5" attributeName="visibility" values="hidden;hidden;hidden;hidden;visible" dur="50s" repeatCount="indefinite" />

        <g id="Group" transform="translate(4.500000, 0.000000)">
            <polygon id="Path-7" fill="#99E4C6" points="4 7 4 8 5 8 5 9 7 9 7 7"></polygon>
            <polygon id="Path-8" fill="#99E4C6" points="9 20 2 20 2 19 3 19 3 18 4 18 8 18 8 19 9 19"></polygon>
            <polygon id="Path-9" fill="#F8FFD9" points="5 11 4 11 4 13 5 13 5 15 4 15 4 18 7 18 7 16 6 16 6 14 7 14 7 13 6 13 6 12 7 12 7 10 5 10"></polygon>
            <polygon id="Path-10" fill="#E0DAC8" points="9 2 9 3 10 3 10 2 11 2 11 1 10 1 10 2"></polygon>
            <path d="M5,19 L6,19 L6,20 L9,20 L9,21 L1,21 L1,20 L0,20 L0,19 L2,19 L2,20 L3,20 L3,19 L4,19 L4,20 L5,20 L5,19 Z M10,19 L10,20 L9,20 L9,19 L10,19 Z M7,18 L7,19 L6,19 L6,18 L7,18 Z M9,18 L9,19 L8,19 L8,18 L9,18 Z M5,18 L5,19 L4,19 L4,18 L5,18 Z M3,18 L3,19 L2,19 L2,18 L3,18 Z M4,15 L4,18 L3,18 L3,15 L4,15 Z M8,16 L8,18 L7,18 L7,16 L8,16 Z M6,17 L6,18 L5,18 L5,17 L6,17 Z M7,14 L7,16 L6,16 L6,14 L7,14 Z M5,13 L5,15 L4,15 L4,13 L5,13 Z M8,13 L8,14 L7,14 L7,13 L8,13 Z M4,11 L4,13 L3,13 L3,11 L4,11 Z M7,12 L7,13 L6,13 L6,12 L7,12 Z M8,10 L8,12 L7,12 L7,10 L8,10 Z M5,8 L5,9 L7,9 L7,10 L5,10 L5,11 L4,11 L4,8 L5,8 Z M8,7 L8,9 L7,9 L7,7 L8,7 Z M4,7 L4,8 L3,8 L3,7 L4,7 Z M6,3 L6,4 L7,4 L7,5 L6,5 L6,6 L7,6 L7,7 L4,7 L4,6 L5,6 L5,3 L6,3 Z M13,0 L13,1 L12,1 L12,2 L11,2 L11,1 L10,1 L10,2 L9,2 L9,3 L10,3 L10,4 L7,4 L7,2 L8,2 L8,1 L10,1 L10,0 L13,0 Z M5,1 L5,3 L4,3 L4,2 L3,2 L3,1 L5,1 Z M11,2 L11,3 L10,3 L10,2 L11,2 Z" id="Combined-Shape" fill="#000000"></path>
        </g>

    </g>

</svg>