<?xml version="1.0" encoding="UTF-8"?>
<svg width="21px" height="21px" viewBox="0 0 21 21" version="1.1" xmlns="http://www.w3.org/2000/svg" xmlns:xlink="http://www.w3.org/1999/xlink">
    <title>Pear-5</title>
    <g id="Pear-5" stroke="none" stroke-width="1" fill="none" fill-rule="evenodd">
        <g id="Group" transform="translate(4.500000, 0.000000)">
            <polygon id="Path-7" fill="#99E4C6" points="4 7 4 8 5 8 5 9 7 9 7 7"></polygon>
            <polygon id="Path-8" fill="#99E4C6" points="9 20 2 20 2 19 3 19 3 18 4 18 8 18 8 19 9 19"></polygon>
            <polygon id="Path-9" fill="#F8FFD9" points="5 11 4 11 4 13 5 13 5 15 4 15 4 18 7 18 7 16 6 16 6 14 7 14 7 13 6 13 6 12 7 12 7 10 5 10"></polygon>
            <polygon id="Path-10" fill="#E0DAC8" points="9 2 9 3 10 3 10 2 11 2 11 1 10 1 10 2"></polygon>
            <path d="M5,19 L6,19 L6,20 L9,20 L9,21 L1,21 L1,20 L0,20 L0,19 L2,19 L2,20 L3,20 L3,19 L4,19 L4,20 L5,20 L5,19 Z M10,19 L10,20 L9,20 L9,19 L10,19 Z M7,18 L7,19 L6,19 L6,18 L7,18 Z M9,18 L9,19 L8,19 L8,18 L9,18 Z M5,18 L5,19 L4,19 L4,18 L5,18 Z M3,18 L3,19 L2,19 L2,18 L3,18 Z M4,15 L4,18 L3,18 L3,15 L4,15 Z M8,16 L8,18 L7,18 L7,16 L8,16 Z M6,17 L6,18 L5,18 L5,17 L6,17 Z M7,14 L7,16 L6,16 L6,14 L7,14 Z M5,13 L5,15 L4,15 L4,13 L5,13 Z M8,13 L8,14 L7,14 L7,13 L8,13 Z M4,11 L4,13 L3,13 L3,11 L4,11 Z M7,12 L7,13 L6,13 L6,12 L7,12 Z M8,10 L8,12 L7,12 L7,10 L8,10 Z M5,8 L5,9 L7,9 L7,10 L5,10 L5,11 L4,11 L4,8 L5,8 Z M8,7 L8,9 L7,9 L7,7 L8,7 Z M4,7 L4,8 L3,8 L3,7 L4,7 Z M6,3 L6,4 L7,4 L7,5 L6,5 L6,6 L7,6 L7,7 L4,7 L4,6 L5,6 L5,3 L6,3 Z M13,0 L13,1 L12,1 L12,2 L11,2 L11,1 L10,1 L10,2 L9,2 L9,3 L10,3 L10,4 L7,4 L7,2 L8,2 L8,1 L10,1 L10,0 L13,0 Z M5,1 L5,3 L4,3 L4,2 L3,2 L3,1 L5,1 Z M11,2 L11,3 L10,3 L10,2 L11,2 Z" id="Combined-Shape" fill="#000000"></path>
        </g>
    </g>
</svg>